<svg width="24" height="24" viewBox="0 0 24 24" fill="none" xmlns="http://www.w3.org/2000/svg">

<g id="arrow_right">
    <path d="M14.8992 12.5004L8.12496 19.2746C7.95836 19.4412 7.95836 19.7084 8.12496 19.875C8.29157 20.0417 8.55876 20.0417 8.72537 19.875L15.8014 12.799C15.968 12.6324 15.968 12.3652 15.8014 12.1986L8.72537 5.12574C8.64364 5.04401 8.53362 5 8.42674 5C8.31986 5 8.20983 5.04087 8.1281 5.12574C7.9615 5.29235 7.9615 5.55954 8.1281 5.72615L14.8992 12.5004Z" fill="white"/>
</g>
<g id="arrow_left">
    <path d="M9.02714 12.4996L15.8014 5.72536C15.968 5.55876 15.968 5.29156 15.8014 5.12495C15.6348 4.95835 15.3676 4.95835 15.201 5.12495L8.12495 12.201C7.95835 12.3676 7.95835 12.6348 8.12495 12.8014L15.201 19.8743C15.2827 19.956 15.3927 20 15.4996 20C15.6065 20 15.7165 19.9591 15.7982 19.8743C15.9648 19.7077 15.9648 19.4405 15.7982 19.2739L9.02714 12.4996Z" fill="white"/>
</g>
<g id="phone">
    <path d="M15.8373 3H8.1627C7.52331 3 7 3.52282 7 4.1627V19.0511C7 19.6909 7.52331 20.2142 8.1627 20.2142H15.8373C16.4767 20.2142 17 19.6919 17 19.0515V4.1627C17 3.52282 16.4767 3 15.8373 3ZM10.7724 3.83809H13.2276C13.3053 3.83809 13.3683 3.90104 13.3683 3.97924C13.3683 4.05695 13.3053 4.11991 13.2276 4.11991H10.7724C10.6947 4.11991 10.6317 4.05695 10.6317 3.97924C10.6317 3.90104 10.6947 3.83809 10.7724 3.83809ZM12 19.6329C11.6788 19.6329 11.4187 19.3727 11.4187 19.0511C11.4187 18.7294 11.6788 18.4697 12 18.4697C12.3212 18.4697 12.5813 18.7294 12.5813 19.0511C12.5813 19.3727 12.3212 19.6329 12 19.6329ZM16.1909 18.0625H7.80907V4.84389H16.1909V18.0625Z" fill="#005FA3"/>
</g>
<g id="phone-white">
    <path d="M15.8373 3H8.1627C7.52331 3 7 3.52282 7 4.1627V19.0511C7 19.6909 7.52331 20.2142 8.1627 20.2142H15.8373C16.4767 20.2142 17 19.6919 17 19.0515V4.1627C17 3.52282 16.4767 3 15.8373 3ZM10.7724 3.83809H13.2276C13.3053 3.83809 13.3683 3.90104 13.3683 3.97924C13.3683 4.05695 13.3053 4.11991 13.2276 4.11991H10.7724C10.6947 4.11991 10.6317 4.05695 10.6317 3.97924C10.6317 3.90104 10.6947 3.83809 10.7724 3.83809ZM12 19.6329C11.6788 19.6329 11.4187 19.3727 11.4187 19.0511C11.4187 18.7294 11.6788 18.4697 12 18.4697C12.3212 18.4697 12.5813 18.7294 12.5813 19.0511C12.5813 19.3727 12.3212 19.6329 12 19.6329ZM16.1909 18.0625H7.80907V4.84389H16.1909V18.0625Z" fill="#ffffff"/>
</g>
<g id="clock">
    <path d="M12 3.5C7.30558 3.5 3.5 7.30558 3.5 12C3.5 16.6944 7.30558 20.5 12 20.5C16.6944 20.5 20.5 16.6944 20.5 12C20.494 7.30809 16.6919 3.50602 12 3.5ZM12.3647 19.7525V18.2574C12.3647 18.056 12.2014 17.8928 12 17.8928C11.7986 17.8928 11.6353 18.056 11.6353 18.2574V19.7525C7.63691 19.5616 4.43843 16.3631 4.24753 12.3647H5.7426C5.94398 12.3647 6.10725 12.2014 6.10725 12C6.10725 11.7986 5.94398 11.6353 5.7426 11.6353H4.24753C4.43843 7.63691 7.63691 4.43843 11.6353 4.24753V5.7426C11.6353 5.94398 11.7986 6.10725 12 6.10725C12.2014 6.10725 12.3647 5.94398 12.3647 5.7426V4.24753C16.3631 4.43843 19.5616 7.63691 19.7525 11.6353H18.2574C18.056 11.6353 17.8928 11.7986 17.8928 12C17.8928 12.2014 18.056 12.3647 18.2574 12.3647H19.7561C19.5651 16.3644 16.3645 19.5634 12.3647 19.7525Z" fill="#005FA3"/>
    <path d="M15.8471 15.3912L12.3646 11.8505V8.17117C12.3646 7.96979 12.2014 7.80652 12 7.80652C11.7986 7.80652 11.6353 7.96979 11.6353 8.17117V12C11.6358 12.0957 11.6737 12.1873 11.7411 12.2553L15.3256 15.9018C15.4666 16.0458 15.6976 16.0482 15.8416 15.9072C15.9856 15.7662 15.988 15.5352 15.8471 15.3912Z" fill="#005FA3"/>
</g>
<g id="mail">
    <path d="M20.6115 4H3.73165C2.22485 4 1 5.22485 1 6.73165V18.2684C1 19.7752 2.22485 21 3.73165 21H20.6069C22.1137 21 23.3385 19.7752 23.3385 18.2684V6.73627C23.3431 5.22947 22.1183 4 20.6115 4ZM22.0952 18.2684C22.0952 19.0865 21.4296 19.752 20.6115 19.752H3.73165C2.91354 19.752 2.24796 19.0865 2.24796 18.2684V6.73627C2.24796 5.91816 2.91354 5.25258 3.73165 5.25258H20.6069C21.425 5.25258 22.0905 5.91816 22.0905 6.73627V18.2684H22.0952Z" fill="#005FA3"/>
    <path d="M15.088 12.3567L20.5513 7.45733C20.8055 7.22623 20.8287 6.83335 20.5975 6.57451C20.3664 6.3203 19.9736 6.29719 19.7147 6.52829L12.1807 13.2904L10.7109 11.9777C10.7063 11.9731 10.7017 11.9685 10.7017 11.9639C10.6693 11.9315 10.637 11.9038 10.6 11.876L4.61903 6.52367C4.36019 6.29257 3.96731 6.31568 3.73621 6.57451C3.50511 6.83335 3.52822 7.22623 3.78705 7.45733L9.31506 12.3983L3.81016 17.552C3.56057 17.7877 3.54671 18.1806 3.78243 18.4348C3.90723 18.5642 4.07362 18.6335 4.24002 18.6335C4.39255 18.6335 4.54507 18.5781 4.66525 18.4671L10.2533 13.2395L11.7694 14.5938C11.8896 14.7001 12.0375 14.751 12.1854 14.751C12.3333 14.751 12.4858 14.6955 12.6014 14.5892L14.159 13.1933L19.7147 18.4717C19.8349 18.5873 19.9921 18.6428 20.1446 18.6428C20.311 18.6428 20.4728 18.5781 20.5975 18.4486C20.8333 18.199 20.824 17.8015 20.5744 17.5658L15.088 12.3567Z" fill="#005FA3"/>
</g>
<g id="mail-white">
    <path d="M20.6115 4H3.73165C2.22485 4 1 5.22485 1 6.73165V18.2684C1 19.7752 2.22485 21 3.73165 21H20.6069C22.1137 21 23.3385 19.7752 23.3385 18.2684V6.73627C23.3431 5.22947 22.1183 4 20.6115 4ZM22.0952 18.2684C22.0952 19.0865 21.4296 19.752 20.6115 19.752H3.73165C2.91354 19.752 2.24796 19.0865 2.24796 18.2684V6.73627C2.24796 5.91816 2.91354 5.25258 3.73165 5.25258H20.6069C21.425 5.25258 22.0905 5.91816 22.0905 6.73627V18.2684H22.0952Z" fill="#ffffff"/>
    <path d="M15.088 12.3567L20.5513 7.45733C20.8055 7.22623 20.8287 6.83335 20.5975 6.57451C20.3664 6.3203 19.9736 6.29719 19.7147 6.52829L12.1807 13.2904L10.7109 11.9777C10.7063 11.9731 10.7017 11.9685 10.7017 11.9639C10.6693 11.9315 10.637 11.9038 10.6 11.876L4.61903 6.52367C4.36019 6.29257 3.96731 6.31568 3.73621 6.57451C3.50511 6.83335 3.52822 7.22623 3.78705 7.45733L9.31506 12.3983L3.81016 17.552C3.56057 17.7877 3.54671 18.1806 3.78243 18.4348C3.90723 18.5642 4.07362 18.6335 4.24002 18.6335C4.39255 18.6335 4.54507 18.5781 4.66525 18.4671L10.2533 13.2395L11.7694 14.5938C11.8896 14.7001 12.0375 14.751 12.1854 14.751C12.3333 14.751 12.4858 14.6955 12.6014 14.5892L14.159 13.1933L19.7147 18.4717C19.8349 18.5873 19.9921 18.6428 20.1446 18.6428C20.311 18.6428 20.4728 18.5781 20.5975 18.4486C20.8333 18.199 20.824 17.8015 20.5744 17.5658L15.088 12.3567Z" fill="#ffffff"/>
</g>
<g id="location">
    <path d="M12.2304 4C8.7949 4 6 6.7949 6 10.2304C6 11.8086 6.99441 14.0384 8.95573 16.8579C10.3893 18.919 11.7993 20.5139 11.8587 20.5808L12.2304 21L12.6022 20.5808C12.6615 20.5139 14.0715 18.919 15.5052 16.8579C17.4664 14.0384 18.4609 11.8086 18.4609 10.2304C18.4609 6.7949 15.6659 4 12.2304 4ZM14.6947 16.2823C13.7257 17.6763 12.7463 18.876 12.2304 19.4881C11.7157 18.8777 10.74 17.6825 9.77167 16.2903C7.95444 13.6779 6.99389 11.5824 6.99389 10.2304C6.99389 7.34301 9.34301 4.99389 12.2304 4.99389C15.1179 4.99389 17.4669 7.34301 17.4669 10.2304C17.4669 11.5809 16.5083 13.6737 14.6947 16.2823Z" fill="#005FA3"/>
    <path d="M12.2304 6.30269C10.2028 6.30269 8.55327 7.95221 8.55327 9.9798C8.55327 12.0074 10.2028 13.6571 12.2304 13.6571C14.2581 13.6571 15.9076 12.0074 15.9076 9.9798C15.9076 7.95221 14.2581 6.30269 12.2304 6.30269ZM12.2304 12.6632C10.7509 12.6632 9.54716 11.4594 9.54716 9.9798C9.54716 8.50032 10.7509 7.29658 12.2304 7.29658C13.71 7.29658 14.9137 8.50032 14.9137 9.9798C14.9137 11.4594 13.71 12.6632 12.2304 12.6632Z" fill="#005FA3"/>
</g>

</svg>
