<svg width="40" height="40" viewBox="0 0 40 40" fill="none" xmlns="http://www.w3.org/2000/svg">
<path d="M0.23175 16.9641V17.0104C0.23175 17.0336 0.23175 17.08 0.208575 17.1031V17.1263C0.208575 17.1495 0.208575 17.1727 0.208575 17.1958V17.2422V17.2654V17.2885V17.3117C0.208575 17.3812 0.1854 17.4508 0.1854 17.5203C0.1854 17.5898 0.162225 17.6362 0.162225 17.7057C0.162225 17.7289 0.162225 17.752 0.162225 17.7752C0.162225 17.8447 0.13905 17.9143 0.13905 17.9838C0.13905 18.0301 0.13905 18.0997 0.115875 18.146V18.1924C0.115875 18.2155 0.115875 18.2387 0.115875 18.2619C0.115875 18.2851 0.115875 18.3082 0.115875 18.3314C0.115875 18.3546 0.115875 18.3546 0.115875 18.3778C0.115875 18.4009 0.115875 18.4009 0.115875 18.4241C0.115875 18.4473 0.115875 18.4705 0.115875 18.4936V18.5168C0.115875 18.5863 0.0926999 18.679 0.0926999 18.7486C0.0926999 18.7949 0.0926999 18.8181 0.0926999 18.8644C0.0926999 18.9108 0.0926999 18.934 0.0926999 18.9803C0.0926999 18.9803 0.0926999 18.9803 0.0926999 19.0035V19.0267V19.0498V19.073C0.0926999 19.1193 0.0926999 19.1657 0.0926999 19.2121C0.0926999 19.2352 0.0926999 19.2584 0.0926999 19.2584C0.0926999 19.3511 0.0926999 19.4206 0.0926999 19.4902C0.0926999 19.5133 0.0926999 19.5133 0.0926999 19.5365V19.5597C0.0926999 19.6292 0.0926999 19.6987 0.0926999 19.7451V19.7914V19.8146V19.8841C0 19.9536 0 19.9536 0 19.9768C0 20 0 20 0 20.0232C0 20.0464 0 20.0463 0 20.0695C0 20.0927 0 20.1159 0 20.1159V20.1854V20.2317C0.0463499 24.0324 1.5759 27.6014 4.28737 30.2665C6.99884 32.9316 10.591 34.4148 14.4148 34.4148C15.0174 34.4148 15.6199 34.3685 16.2225 34.299C16.5006 34.2758 16.7555 34.2294 17.0336 34.1831C15.0637 33.0012 13.3488 31.4021 12.0046 29.4786C11.518 28.7833 11.1008 28.0649 10.73 27.3001C10.6373 27.1379 10.5678 26.9525 10.4983 26.7903C10.4983 26.7671 10.4751 26.7439 10.4751 26.7439C9.54809 24.635 9.06141 22.3638 9.06141 20.0232C9.06141 16.6165 10.0811 13.3488 12.0278 10.5446C12.4681 9.89571 12.9548 9.29316 13.4878 8.73696C15.2028 6.90614 17.2885 5.46929 19.6524 4.56547C20.3708 4.28737 21.0892 4.05562 21.8308 3.8934C23.0591 3.59212 24.3337 3.45307 25.6315 3.45307C28.6443 3.45307 31.5411 4.26419 34.0672 5.74739C34.044 5.72422 34.0209 5.70104 33.9977 5.67787C33.9745 5.65469 33.9282 5.60834 33.905 5.58517L33.8818 5.56199C33.8586 5.53882 33.8123 5.51564 33.7891 5.46929C33.7659 5.44612 33.7196 5.42294 33.6964 5.37659C33.6964 5.37659 33.6964 5.37659 33.6732 5.35342C33.6269 5.33024 33.6037 5.28389 33.5574 5.26072L33.511 5.21437L33.4878 5.19119C33.4415 5.14484 33.3951 5.09849 33.3256 5.05214C33.2561 5.00579 33.2097 4.95944 33.1634 4.91309C33.1402 4.88992 33.117 4.88992 33.117 4.86674C33.0707 4.84357 33.0475 4.79722 33.0012 4.77404L32.9316 4.70452L32.8853 4.65817L32.8621 4.63499L32.8389 4.61182C32.7926 4.56547 32.7462 4.54229 32.6999 4.49594C32.6767 4.47277 32.6304 4.44959 32.6072 4.40324C32.4913 4.31054 32.3754 4.21784 32.2827 4.14832C32.2596 4.12514 32.2132 4.10197 32.19 4.07879L32.1437 4.05562L32.1205 4.03244C32.1205 4.03244 32.1205 4.03244 32.0973 4.03244L32.0278 3.9861L32.0046 3.96292L31.9119 3.8934L31.8888 3.87022C31.8656 3.84705 31.8656 3.84705 31.8424 3.82387L31.8192 3.8007C31.7961 3.77752 31.7497 3.75435 31.7265 3.73117L31.7034 3.708C31.6107 3.63847 31.5411 3.59212 31.4484 3.5226C31.4021 3.49942 31.3789 3.47625 31.3326 3.45307L31.3094 3.4299C31.263 3.38355 31.1935 3.36037 31.1472 3.31402C31.124 3.31402 31.124 3.29085 31.1008 3.29085C31.0545 3.26767 31.0081 3.2445 30.9849 3.22132C30.9154 3.17497 30.8691 3.1518 30.7995 3.10545C30.73 3.0591 30.6837 3.03592 30.6141 2.98957L30.5214 2.92005C30.4983 2.92005 30.4983 2.89687 30.4751 2.89687C30.4519 2.89687 30.4287 2.8737 30.4056 2.8737C30.3824 2.8737 30.3824 2.85052 30.3592 2.85052C30.3129 2.82735 30.2665 2.80417 30.2202 2.781L30.197 2.75782C30.1738 2.75782 30.1738 2.73465 30.1506 2.73465C30.1043 2.71147 30.0579 2.6883 30.0348 2.66512C30.0348 2.66512 30.0348 2.66512 30.0116 2.66512C29.7335 2.5029 29.4322 2.36385 29.1541 2.20162H29.1309C29.0614 2.17845 28.9919 2.1321 28.9455 2.10892L28.5052 1.92352C28.5052 1.92352 28.5052 1.92352 28.482 1.92352C28.2735 1.83082 28.0881 1.73812 27.9027 1.6686C27.8563 1.64542 27.81 1.62225 27.7636 1.62225H27.7404H27.7173L27.6477 1.59907C27.6246 1.59907 27.6014 1.5759 27.555 1.5759C27.5319 1.5759 27.5319 1.5759 27.5087 1.55272C27.3233 1.4832 27.1611 1.41367 27.022 1.36732L26.9293 1.34415H26.9061L26.8134 1.32097C26.5585 1.22827 26.3268 1.13557 26.0487 1.06605C26.0487 1.06605 26.0487 1.06605 26.0255 1.06605C25.9791 1.04287 25.9328 1.04287 25.8864 1.0197C25.8401 0.996524 25.7937 0.996524 25.7474 0.973349C25.7242 0.973349 25.6779 0.950174 25.6547 0.950174C25.5388 0.926999 25.4461 0.880649 25.3302 0.857474C25.3071 0.857474 25.3071 0.857474 25.2839 0.857474C25.2839 0.718424 25.2607 0.718424 25.2375 0.718424H25.2144H25.1912C24.9826 0.672074 24.774 0.602549 24.5423 0.556199C24.4264 0.533024 24.2874 0.509849 24.1715 0.463499C23.9629 0.417149 23.7312 0.3708 23.5226 0.32445C23.4531 0.301275 23.3604 0.301275 23.2908 0.2781C23.2213 0.254925 23.1286 0.254925 23.0591 0.23175C23.0127 0.23175 22.9896 0.23175 22.9432 0.208575C22.8969 0.208575 22.8505 0.1854 22.8042 0.1854C22.5724 0.162225 22.3407 0.115875 22.1089 0.0926999C21.6686 0.0463499 21.2051 0.023175 20.7648 0C20.5098 0.023175 20.2549 0.023175 20 0.023175C19.5829 0.023175 19.1425 0.0463499 18.7254 0.0695249C18.679 0.0695249 18.6327 0.0695249 18.5863 0.0695249C18.1228 0.0926999 17.6593 0.13905 17.1958 0.208575C17.1031 0.23175 17.0336 0.23175 16.9409 0.254925L0.23175 16.9641Z" fill="#005FA3"/>
<path d="M39.7683 23.0591V23.0359C39.7683 23.0128 39.7683 22.9896 39.7914 22.9432V22.9201C39.7914 22.8737 39.8146 22.8505 39.8146 22.8042V22.781V22.7578C39.8146 22.7347 39.8146 22.7347 39.8146 22.7347L39.8378 22.6188L39.861 22.5261C39.861 22.4334 39.8841 22.3639 39.8841 22.2943C39.8841 22.2248 39.9073 22.1553 39.9073 22.0858C39.9073 22.0162 39.9305 21.9699 39.9305 21.9235V21.8772C39.9305 21.8308 39.9305 21.8077 39.9305 21.7613V21.7381V21.715C39.9305 21.6686 39.9305 21.6223 39.9537 21.5527V21.5296C39.9537 21.46 39.9768 21.3905 39.9768 21.2978C39.9768 21.2283 39.9768 21.1356 40 21.0661V21.0429V21.0197V20.9965C40 20.927 40 20.8575 40 20.8111C40 20.7184 40 20.6489 40 20.5562V20.5099C40 20.4403 40 20.394 40 20.3245V20.1854C40 20.1391 40 20.0927 40 20.0232C40 19.9768 40 19.9073 40 19.861V19.8146C39.9537 16.0139 38.4241 12.445 35.7126 9.77985C33.0012 7.11472 29.409 5.63153 25.5852 5.63153C24.7045 5.63153 23.8239 5.70105 22.9896 5.86328C24.9595 7.0452 26.6744 8.64427 28.0185 10.5678C29.9652 13.3488 30.9849 16.6165 30.9849 20.0464C30.9849 23.4531 29.9652 26.7208 28.0185 29.5249C26.1182 32.2364 23.4763 34.3221 20.394 35.5041C18.4936 36.2457 16.4774 36.6165 14.4148 36.6165C11.4021 36.6165 8.50522 35.8053 5.97915 34.3221H6.00233C6.0255 34.3453 6.0255 34.3453 6.04868 34.3685L6.09503 34.4148C6.1182 34.438 6.16455 34.4844 6.18773 34.5075C6.23408 34.5539 6.3036 34.6234 6.37313 34.6698C6.41948 34.7161 6.46583 34.7393 6.489 34.7856C6.55853 34.8552 6.62805 34.9247 6.72075 34.9942C6.7671 35.0406 6.81345 35.0869 6.8598 35.1333L6.88298 35.1564L7.02203 35.2723L7.0452 35.2955C7.09155 35.3187 7.11473 35.365 7.16108 35.3882L7.18425 35.4114L7.20743 35.4345C7.2306 35.4577 7.27695 35.5041 7.3233 35.5272H7.34648H7.36965C7.39283 35.5504 7.43918 35.5736 7.46235 35.5968C7.57823 35.6895 7.67093 35.759 7.7868 35.8517C7.80998 35.8749 7.83315 35.898 7.85633 35.898C7.8795 35.9212 7.90268 35.9444 7.94902 35.9676C7.9722 35.9907 7.9722 35.9907 7.99538 35.9907L8.01855 36.0139C8.0649 36.0371 8.11125 36.0834 8.1576 36.1066L8.20395 36.1298C8.22713 36.153 8.2503 36.153 8.27347 36.1761C8.29665 36.1993 8.343 36.2225 8.36617 36.2457L8.41252 36.2688C8.50522 36.3384 8.57475 36.3847 8.66745 36.4542C8.7138 36.4774 8.73697 36.5006 8.78332 36.5238L8.8065 36.5469L8.8992 36.6165L8.9919 36.686C9.03825 36.7092 9.0846 36.7555 9.15412 36.7787C9.20047 36.8019 9.27 36.8482 9.31635 36.8714H9.50175L9.7335 37.08C9.75667 37.1031 9.80302 37.1263 9.84937 37.1495C9.9189 37.1958 9.98842 37.2422 10.0579 37.2654C10.1043 37.2885 10.1738 37.3349 10.2202 37.3581C10.5214 37.5203 10.8227 37.6825 11.124 37.8216C11.1935 37.8447 11.263 37.8911 11.3326 37.9143C11.3326 37.9143 11.3557 37.9143 11.3557 37.9374C11.4253 37.9606 11.4716 38.007 11.5411 38.0301C11.7265 38.1228 11.9119 38.2155 12.1205 38.2851C12.1669 38.3082 12.2132 38.3314 12.2596 38.3546C12.2827 38.3546 12.2827 38.3778 12.3059 38.3778C12.3754 38.4009 12.4218 38.4241 12.4913 38.4473C12.6535 38.5168 12.8158 38.5632 12.978 38.6327C13.0243 38.6559 13.0939 38.679 13.1402 38.7022C13.3951 38.7949 13.6501 38.8876 13.8818 38.9571C13.9282 38.9803 13.9745 38.9803 14.0209 39.0035C14.0904 39.0267 14.1599 39.0498 14.2526 39.073L14.3221 39.0962C14.4148 39.1194 14.5075 39.1425 14.5771 39.1657C14.6234 39.1889 14.6698 39.1889 14.7161 39.2121C15.2723 39.3511 15.8285 39.4902 16.3847 39.5829C16.4542 39.606 16.5238 39.606 16.6165 39.6292C16.7092 39.6524 16.7787 39.6524 16.8482 39.6756C16.9177 39.6987 17.0104 39.6987 17.08 39.6987C18.007 39.8378 18.934 39.8841 19.8841 39.8841C20.8111 39.8841 21.7613 39.8146 22.6883 39.6987H22.7115C22.781 39.6987 22.8505 39.6756 22.9432 39.6756L39.6524 22.9664C39.7683 23.0591 39.7683 23.0591 39.7683 23.0591Z" fill="#222222"/>
</svg>
